<svg data-name="Laag 1" xmlns="http://www.w3.org/2000/svg" width="1628.63" height="1305.65"><path d="M1124.58 1305.65a121.59 121.59 0 0 1-32.15-4.33L89.35 941C41.6 928 7.79 889.33 1.15 840.23s15.69-95.32 58.28-120.64L929.75 17.07a121.51 121.51 0 0 1 132.42 5.35l515.35 366.14a121.41 121.41 0 0 1 47.33 129l-120.06 471a120.82 120.82 0 0 1-38.52 62.09l-262.61 225.65a121.25 121.25 0 0 1-79.08 29.35zm-31.86-5.29a120.26 120.26 0 0 0 110.28-24.82l262.61-225.68a119.83 119.83 0 0 0 38.2-61.58l120.06-471a120.41 120.41 0 0 0-46.94-127.9L1061.58 23.23a120.49 120.49 0 0 0-131.27-5.35L60 720.41c-42.3 25.15-64.44 71-57.86 119.69s40.11 87 87.5 100l1003.09 360.27z" fill="#e44441"/></svg>